<svg width="45" height="22" viewBox="0 0 45 22" fill="none" xmlns="http://www.w3.org/2000/svg">
<path fill-rule="evenodd" clip-rule="evenodd" d="M10.7694 0C4.81669 0.0287582 0 4.86324 0 10.8227C0 16.8 4.84553 21.6456 10.8228 21.6456C16.8 21.6456 21.6456 16.8 21.6456 10.8227C21.6456 10.8212 21.6456 10.8196 21.6456 10.8181H10.7694V0Z" fill="#00FF19"/>
<path d="M40.7966 12.9873H45.0009V17.3165H40.7966V12.9873Z" fill="#00FF19"/>
<path d="M40.7966 8.65823V6.49367V4.32911V0H21.6465V21.6456H40.7966V17.3165V12.9873V8.65823Z" fill="#00FF19"/>
<path d="M40.7966 8.65823H45.0009V4.32911L40.7966 4.32911V6.49367V8.65823Z" fill="#00FF19"/>
<path d="M39.3047 9.1136H45.0009V4.55664H39.3047V9.1136Z" fill="#00FF19"/>
<path d="M39.3047 17.6585H45.0009V13.1016H39.3047V17.6585Z" fill="#00FF19"/>
</svg>
